<?xml version="1.0" encoding="UTF-8" standalone="no"?>
<!-- Created with Inkscape (http://www.inkscape.org/) -->

<svg
   xmlns:dc="http://purl.org/dc/elements/1.1/"
   xmlns:cc="http://creativecommons.org/ns#"
   xmlns:rdf="http://www.w3.org/1999/02/22-rdf-syntax-ns#"
   xmlns:svg="http://www.w3.org/2000/svg"
   xmlns="http://www.w3.org/2000/svg"
   version="1.1"
   width="104"
   height="168"
   id="svg2">
  <defs
     id="defs4" />
  <metadata
     id="metadata7">
    <rdf:RDF>
      <cc:Work
         rdf:about="">
        <dc:format>image/svg+xml</dc:format>
        <dc:type
           rdf:resource="http://purl.org/dc/dcmitype/StillImage" />
        <dc:title></dc:title>
      </cc:Work>
    </rdf:RDF>
  </metadata>
  <g
     transform="translate(-308.48474,-348.09861)"
     id="layer1">
    <g
       transform="translate(158.59395,6.0609153)"
       id="g2996">
      <path
         d="m 189.89079,510.03769 -8,0 0,-4 0,-4 -4,0 -4,0 0,-12 0,-12 -8,0 -8,0 0,-4 0,-4 -4,0 -4,0 0,-8 0,-8 4,0 4,0 0,-8 0,-8 4,0 4,0 0,-4 0,-4 4,0 4,0 0,-4 0,-4 4,0 4,0 0,-4 0,-4 -4,0 -4,0 0,-4 0,-4 -4,0 -4,0 0,-4 0,-4 -4,0 -4,0 0,-4 0,-4 -4,0 -4,0 0,-8 0,-8 4,0 4,0 0,-4 0,-4 4,0 4,0 0,-4 0,-4 8,0 8,0 0,-4 0,-4 4,0 4,0 0,-4 0,-4 8,0 8,0 0,4 0,4 4,0 4,0 0,-4 0,-4 12,0 12,0 0,4 0,4 4,0 4,0 0,12 0,12 4,0 4,0 0,8 0,8 -4,0 -4,0 0,4 0,4 -4,0 -4,0 0,4 0,4 -4,0 -4,0 0,4 0,4 -4,0 -4,0 0,4 0,4 4,0 4,0 0,4 0,4 4,0 4,0 0,4 0,4 4,0 4,0 0,8 0,8 4,0 4,0 0,8 0,8 -4,0 -4,0 0,4 0,4 -8,0 -8,0 0,12 0,12 -4,0 -4,0 0,4 0,4 -8,0 -8,0 0,-4 0,-4 -4,0 -4,0 0,4 0,4 -8,0 z"
         id="path3030"
         style="fill:#f1d7ca" />
      <path
         d="m 189.89079,510.03769 -8,0 0,-4 0,-4 -4,0 -4,0 0,-12 0,-12 -8,0 -8,0 0,-4 0,-4 -4,0 -4,0 0,-8 0,-8 4,0 4,0 0,-8 0,-8 4,0 4,0 0,-4 0,-4 4,0 4,0 0,-4 0,-4 4,0 4,0 0,-4 0,-4 -4,0 -4,0 0,-4 0,-4 -4,0 -4,0 0,-4 0,-4 -4,0 -4,0 0,-4 0,-4 -4,0 -4,0 0,-8 0,-8 4,0 4,0 0,-4 0,-4 4,0 4,0 0,-4 0,-4 8,0 8,0 0,-4 0,-4 4,0 4,0 0,-4 0,-4 8,0 8,0 0,4 0,4 4,0 4,0 0,-4 0,-4 12,0 12,0 0,4 0,4 4,0 4,0 0,12 0,12 4,0 4,0 0,8 0,8 -4,0 -4,0 0,4 0,4 -4,0 -4,0 0,4 0,4 -4,0 -4,0 0,4 0,4 -4,0 -4,0 0,4 0,4 4,0 4,0 0,4 0,4 4,0 4,0 0,4 0,4 4,0 4,0 0,8 0,8 4,0 4,0 0,8 0,8 -4,0 -4,0 0,4 0,4 -8,0 -8,0 0,12 0,12 -4,0 -4,0 0,4 0,4 -8,0 -8,0 0,-4 0,-4 -4,0 -4,0 0,4 0,4 -8,0 z m 44,-152 4,0 0,-4 0,-4 -4,0 -4,0 0,4 0,4 4,0 z"
         id="path3028"
         style="fill:#fecbb6" />
      <path
         d="m 189.89079,510.03769 -8,0 0,-4 0,-4 -4,0 -4,0 0,-12 0,-12 -8,0 -8,0 0,-4 0,-4 -4,0 -4,0 0,-8 0,-8 4,0 4,0 0,-8 0,-8 4,0 4,0 0,-4 0,-4 4,0 4,0 0,-4 0,-4 4,0 4,0 0,-4 0,-4 -4,0 -4,0 0,-4 0,-4 -4,0 -4,0 0,-4 0,-4 -4,0 -4,0 0,-4 0,-4 -4,0 -4,0 0,-8 0,-8 4,0 4,0 0,-4 0,-4 4,0 4,0 0,-4 0,-4 8,0 8,0 0,-4 0,-4 4,0 4,0 0,-4 0,-4 8,0 8,0 0,4 0,4 4,0 4,0 0,-4 0,-4 12,0 12,0 0,4 0,4 4,0 4,0 0,12 0,12 4,0 4,0 0,8 0,8 -4,0 -4,0 0,4 0,4 -4,0 -4,0 0,4 0,4 -4,0 -4,0 0,4 0,4 -4,0 -4,0 0,4 0,4 4,0 4,0 0,4 0,4 4,0 4,0 0,4 0,4 4,0 4,0 0,8 0,8 4,0 4,0 0,8 0,8 -4,0 -4,0 0,4 0,4 -8,0 -8,0 0,12 0,12 -4,0 -4,0 0,4 0,4 -8,0 -8,0 0,-4 0,-4 -4,0 -4,0 0,4 0,4 -8,0 z m -20,-64 4,0 0,-4 0,-4 -4,0 -4,0 0,4 0,4 4,0 z m 64,0 4,0 0,-4 0,-4 -4,0 -4,0 0,4 0,4 4,0 z m 0,-88 4,0 0,-4 0,-4 -4,0 -4,0 0,4 0,4 4,0 z"
         id="path3026"
         style="fill:#fead98" />
      <path
         d="m 189.89079,510.03769 -8,0 0,-4 0,-4 -4,0 -4,0 0,-12 0,-12 -8,0 -8,0 0,-4 0,-4 -4,0 -4,0 0,-8 0,-8 4,0 4,0 0,-8 0,-8 4,0 4,0 0,-4 0,-4 4,0 4,0 0,-4 0,-4 4,0 4,0 0,-4 0,-4 -4,0 -4,0 0,-4 0,-4 -4,0 -4,0 0,-4 0,-4 -4,0 -4,0 0,-4 0,-4 -4,0 -4,0 0,-8 0,-8 4,0 4,0 0,-4 0,-4 4,0 4,0 0,-4 0,-4 8,0 8,0 0,-4 0,-4 4,0 4,0 0,-4 0,-4 8,0 8,0 0,4 0,4 4,0 4,0 0,-4 0,-4 12,0 12,0 0,4 0,4 4,0 4,0 0,12 0,12 4,0 4,0 0,8 0,8 -4,0 -4,0 0,4 0,4 -4,0 -4,0 0,4 0,4 -4,0 -4,0 0,4 0,4 -4,0 -4,0 0,4 0,4 4,0 4,0 0,4 0,4 4,0 4,0 0,4 0,4 4,0 4,0 0,8 0,8 4,0 4,0 0,8 0,8 -4,0 -4,0 0,4 0,4 -8,0 -8,0 0,12 0,12 -4,0 -4,0 0,4 0,4 -8,0 -8,0 0,-4 0,-4 -4,0 -4,0 0,4 0,4 -8,0 z m -20,-40 4,0 0,-4 0,-4 -4,0 -4,0 0,-4 0,-4 4,0 4,0 0,-8 0,-8 -4,0 -4,0 0,8 0,8 -4,0 -4,0 0,4 0,4 4,0 4,0 0,4 0,4 4,0 z m 64,0 4,0 0,-4 0,-4 4,0 4,0 0,-4 0,-4 -4,0 -4,0 0,-8 0,-8 -4,0 -4,0 0,8 0,8 4,0 4,0 0,4 0,4 -4,0 -4,0 0,4 0,4 4,0 z m -32,-48 12,0 0,-4 0,-4 4,0 4,0 0,-16 0,-16 -4,0 -4,0 0,12 0,12 -4,0 -4,0 0,-8 0,-8 -4,0 -4,0 0,-4 0,-4 -4,0 -4,0 0,4 0,4 -4,0 -4,0 0,12 0,12 4,0 4,0 0,4 0,4 12,0 z m -8,-16 -4,0 0,-8 0,-8 4,0 4,0 0,8 0,8 -4,0 z m 40,-48 4,0 0,-4 0,-4 -4,0 -4,0 0,4 0,4 4,0 z"
         id="path3024"
         style="fill:#d3b9ac" />
      <path
         d="m 189.89079,510.03769 -8,0 0,-4 0,-4 -4,0 -4,0 0,-12 0,-12 -8,0 -8,0 0,-4 0,-4 -4,0 -4,0 0,-8 0,-8 4,0 4,0 0,-8 0,-8 4,0 4,0 0,-4 0,-4 4,0 4,0 0,-4 0,-4 4,0 4,0 0,-4 0,-4 -4,0 -4,0 0,-4 0,-4 -4,0 -4,0 0,-4 0,-4 -4,0 -4,0 0,-4 0,-4 -4,0 -4,0 0,-8 0,-8 4,0 4,0 0,-4 0,-4 4,0 4,0 0,-4 0,-4 8,0 8,0 0,-4 0,-4 4,0 4,0 0,-4 0,-4 8,0 8,0 0,4 0,4 4,0 4,0 0,-4 0,-4 12,0 12,0 0,4 0,4 4,0 4,0 0,12 0,12 4,0 4,0 0,8 0,8 -4,0 -4,0 0,4 0,4 -4,0 -4,0 0,4 0,4 -4,0 -4,0 0,4 0,4 -4,0 -4,0 0,4 0,4 4,0 4,0 0,4 0,4 4,0 4,0 0,4 0,4 4,0 4,0 0,8 0,8 4,0 4,0 0,8 0,8 -4,0 -4,0 0,4 0,4 -8,0 -8,0 0,12 0,12 -4,0 -4,0 0,4 0,4 -8,0 -8,0 0,-4 0,-4 -4,0 -4,0 0,4 0,4 -8,0 z m -20,-40 4,0 0,-4 0,-4 -4,0 -4,0 0,-4 0,-4 4,0 4,0 0,-8 0,-8 -4,0 -4,0 0,8 0,8 -4,0 -4,0 0,4 0,4 4,0 4,0 0,4 0,4 4,0 z m 64,0 4,0 0,-4 0,-4 4,0 4,0 0,-4 0,-4 -4,0 -4,0 0,-8 0,-8 -4,0 -4,0 0,8 0,8 4,0 4,0 0,4 0,4 -4,0 -4,0 0,4 0,4 4,0 z m -32,-48 12,0 0,-4 0,-4 4,0 4,0 0,-16 0,-16 -4,0 -4,0 0,12 0,12 -4,0 -4,0 0,-8 0,-8 -4,0 -4,0 0,-4 0,-4 -4,0 -4,0 0,4 0,4 -4,0 -4,0 0,12 0,12 4,0 4,0 0,4 0,4 12,0 z m -8,-16 -4,0 0,-8 0,-8 4,0 4,0 0,8 0,8 -4,0 z m -24,-32 4,0 0,-4 0,-4 -4,0 -4,0 0,4 0,4 4,0 z m 24,-8 4,0 0,-4 0,-4 -4,0 -4,0 0,4 0,4 4,0 z m 36,-8 8,0 0,-4 0,-4 -8,0 -8,0 0,4 0,4 8,0 z"
         id="path3022"
         style="fill:#3bd4fe" />
      <path
         d="m 189.89079,510.03769 -8,0 0,-4 0,-4 -4,0 -4,0 0,-12 0,-12 -8,0 -8,0 0,-4 0,-4 -4,0 -4,0 0,-8 0,-8 4,0 4,0 0,-8 0,-8 4,0 4,0 0,-4 0,-4 4,0 4,0 0,-4 0,-4 4,0 4,0 0,-4 0,-4 -4,0 -4,0 0,-4 0,-4 -4,0 -4,0 0,-4 0,-4 -4,0 -4,0 0,-4 0,-4 -4,0 -4,0 0,-8 0,-8 4,0 4,0 0,-4 0,-4 4,0 4,0 0,-4 0,-4 8,0 8,0 0,-4 0,-4 4,0 4,0 0,-4 0,-4 8,0 8,0 0,4 0,4 4,0 4,0 0,-4 0,-4 12,0 12,0 0,4 0,4 4,0 4,0 0,12 0,12 4,0 4,0 0,8 0,8 -4,0 -4,0 0,4 0,4 -4,0 -4,0 0,4 0,4 -4,0 -4,0 0,4 0,4 -4,0 -4,0 0,4 0,4 4,0 4,0 0,4 0,4 4,0 4,0 0,4 0,4 4,0 4,0 0,8 0,8 4,0 4,0 0,8 0,8 -4,0 -4,0 0,4 0,4 -8,0 -8,0 0,12 0,12 -4,0 -4,0 0,4 0,4 -8,0 -8,0 0,-4 0,-4 -4,0 -4,0 0,4 0,4 -8,0 z m -20,-40 4,0 0,-4 0,-4 -4,0 -4,0 0,-4 0,-4 4,0 4,0 0,-8 0,-8 -4,0 -4,0 0,8 0,8 -4,0 -4,0 0,4 0,4 4,0 4,0 0,4 0,4 4,0 z m 16,0 4,0 0,-4 0,-4 -4,0 -4,0 0,4 0,4 4,0 z m 32,0 4,0 0,-4 0,-4 -4,0 -4,0 0,4 0,4 4,0 z m 16,0 4,0 0,-4 0,-4 4,0 4,0 0,-4 0,-4 -4,0 -4,0 0,-8 0,-8 -4,0 -4,0 0,8 0,8 4,0 4,0 0,4 0,4 -4,0 -4,0 0,4 0,4 4,0 z m -32,-48 12,0 0,-4 0,-4 4,0 4,0 0,-16 0,-16 -4,0 -4,0 0,12 0,12 -4,0 -4,0 0,-8 0,-8 -4,0 -4,0 0,-4 0,-4 -4,0 -4,0 0,4 0,4 -4,0 -4,0 0,12 0,12 4,0 4,0 0,4 0,4 12,0 z m -8,-16 -4,0 0,-8 0,-8 4,0 4,0 0,8 0,8 -4,0 z m -24,-32 4,0 0,-4 0,-4 -4,0 -4,0 0,4 0,4 4,0 z m 24,-8 4,0 0,-4 0,-4 -4,0 -4,0 0,4 0,4 4,0 z m 36,-8 8,0 0,-4 0,-4 -8,0 -8,0 0,4 0,4 8,0 z"
         id="path3020"
         style="fill:#e08f7a" />
      <path
         d="m 189.89079,510.03769 -8,0 0,-4 0,-4 -4,0 -4,0 0,-12 0,-12 -8,0 -8,0 0,-4 0,-4 -4,0 -4,0 0,-8 0,-8 4,0 4,0 0,-8 0,-8 4,0 4,0 0,-4 0,-4 4,0 4,0 0,-4 0,-4 4,0 4,0 0,-4 0,-4 -4,0 -4,0 0,-4 0,-4 -4,0 -4,0 0,-4 0,-4 -4,0 -4,0 0,-4 0,-4 -4,0 -4,0 0,-8 0,-8 4,0 4,0 0,-4 0,-4 4,0 4,0 0,-4 0,-4 8,0 8,0 0,-4 0,-4 4,0 4,0 0,-4 0,-4 8,0 8,0 0,4 0,4 4,0 4,0 0,-4 0,-4 12,0 12,0 0,4 0,4 4,0 4,0 0,12 0,12 4,0 4,0 0,8 0,8 -4,0 -4,0 0,4 0,4 -4,0 -4,0 0,4 0,4 -4,0 -4,0 0,4 0,4 -4,0 -4,0 0,4 0,4 4,0 4,0 0,4 0,4 4,0 4,0 0,4 0,4 4,0 4,0 0,8 0,8 4,0 4,0 0,8 0,8 -4,0 -4,0 0,4 0,4 -8,0 -8,0 0,12 0,12 -4,0 -4,0 0,4 0,4 -8,0 -8,0 0,-4 0,-4 -4,0 -4,0 0,4 0,4 -8,0 z m -24,-40 8,0 0,-16 0,-16 -4,0 -4,0 0,8 0,8 -4,0 -4,0 0,8 0,8 8,0 z m 20,0 4,0 0,-4 0,-4 -4,0 -4,0 0,4 0,4 4,0 z m 32,0 4,0 0,-4 0,-4 -4,0 -4,0 0,4 0,4 4,0 z m 20,0 8,0 0,-8 0,-8 -4,0 -4,0 0,-8 0,-8 -4,0 -4,0 0,16 0,16 8,0 z m -36,-48 12,0 0,-4 0,-4 4,0 4,0 0,-20 0,-20 -4,0 -4,0 0,4 0,4 -8,0 -8,0 0,-4 0,-4 -4,0 -4,0 0,4 0,4 -4,0 -4,0 0,16 0,16 4,0 4,0 0,4 0,4 12,0 z m -8,-16 -4,0 0,-8 0,-8 4,0 4,0 0,8 0,8 -4,0 z m 16,0 -4,0 0,-8 0,-8 4,0 4,0 0,8 0,8 -4,0 z m -40,-32 4,0 0,-4 0,-4 -4,0 -4,0 0,4 0,4 4,0 z m 24,-8 4,0 0,-4 0,-4 -4,0 -4,0 0,4 0,4 4,0 z m 36,-8 8,0 0,-4 0,-4 -8,0 -8,0 0,4 0,4 8,0 z"
         id="path3018"
         style="fill:#b59b8e" />
      <path
         d="m 189.89079,510.03769 -8,0 0,-4 0,-4 -4,0 -4,0 0,-12 0,-12 -8,0 -8,0 0,-4 0,-4 -4,0 -4,0 0,-8 0,-8 4,0 4,0 0,-8 0,-8 4,0 4,0 0,-4 0,-4 4,0 4,0 0,-4 0,-4 4,0 4,0 0,-4 0,-4 -4,0 -4,0 0,-4 0,-4 -4,0 -4,0 0,-4 0,-4 -4,0 -4,0 0,-4 0,-4 -4,0 -4,0 0,-8 0,-8 4,0 4,0 0,-4 0,-4 4,0 4,0 0,-4 0,-4 8,0 8,0 0,-4 0,-4 4,0 4,0 0,-4 0,-4 8,0 8,0 0,4 0,4 4,0 4,0 0,-4 0,-4 12,0 12,0 0,4 0,4 4,0 4,0 0,12 0,12 4,0 4,0 0,8 0,8 -4,0 -4,0 0,4 0,4 -4,0 -4,0 0,4 0,4 -4,0 -4,0 0,4 0,4 -4,0 -4,0 0,4 0,4 4,0 4,0 0,4 0,4 4,0 4,0 0,4 0,4 4,0 4,0 0,8 0,8 4,0 4,0 0,8 0,8 -4,0 -4,0 0,4 0,4 -8,0 -8,0 0,12 0,12 -4,0 -4,0 0,4 0,4 -8,0 -8,0 0,-4 0,-4 -4,0 -4,0 0,4 0,4 -8,0 z m -24,-40 8,0 0,-16 0,-16 -4,0 -4,0 0,8 0,8 -4,0 -4,0 0,8 0,8 8,0 z m 20,0 4,0 0,-4 0,-4 -4,0 -4,0 0,4 0,4 4,0 z m 32,0 4,0 0,-4 0,-4 -4,0 -4,0 0,4 0,4 4,0 z m 20,0 8,0 0,-8 0,-8 -4,0 -4,0 0,-8 0,-8 -4,0 -4,0 0,16 0,16 8,0 z m -36,-48 12,0 0,-4 0,-4 4,0 4,0 0,-20 0,-20 -4,0 -4,0 0,4 0,4 -8,0 -8,0 0,-4 0,-4 -4,0 -4,0 0,4 0,4 -4,0 -4,0 0,16 0,16 4,0 4,0 0,4 0,4 12,0 z m -8,-16 -4,0 0,-8 0,-8 4,0 4,0 0,8 0,8 -4,0 z m 16,0 -4,0 0,-8 0,-8 4,0 4,0 0,8 0,8 -4,0 z m -40,-32 4,0 0,-4 0,-4 -4,0 -4,0 0,4 0,4 4,0 z m 24,-8 4,0 0,-4 0,-4 -4,0 -4,0 0,4 0,4 4,0 z m 32,-8 12,0 0,-4 0,-4 -12,0 -12,0 0,4 0,4 12,0 z"
         id="path3016"
         style="fill:#1d98fe" />
      <path
         d="m 189.89079,510.03769 -8,0 0,-4 0,-4 -4,0 -4,0 0,-12 0,-12 -8,0 -8,0 0,-4 0,-4 -4,0 -4,0 0,-8 0,-8 4,0 4,0 0,-8 0,-8 4,0 4,0 0,-4 0,-4 4,0 4,0 0,-4 0,-4 4,0 4,0 0,-4 0,-4 -4,0 -4,0 0,-4 0,-4 -4,0 -4,0 0,-4 0,-4 -4,0 -4,0 0,-4 0,-4 -4,0 -4,0 0,-8 0,-8 4,0 4,0 0,-4 0,-4 4,0 4,0 0,-4 0,-4 8,0 8,0 0,-4 0,-4 4,0 4,0 0,-4 0,-4 8,0 8,0 0,4 0,4 4,0 4,0 0,-4 0,-4 12,0 12,0 0,4 0,4 4,0 4,0 0,12 0,12 4,0 4,0 0,8 0,8 -4,0 -4,0 0,4 0,4 -4,0 -4,0 0,4 0,4 -4,0 -4,0 0,4 0,4 -4,0 -4,0 0,4 0,4 4,0 4,0 0,4 0,4 4,0 4,0 0,4 0,4 4,0 4,0 0,8 0,8 4,0 4,0 0,8 0,8 -4,0 -4,0 0,4 0,4 -8,0 -8,0 0,12 0,12 -4,0 -4,0 0,4 0,4 -8,0 -8,0 0,-4 0,-4 -4,0 -4,0 0,4 0,4 -8,0 z m 4,-24 4,0 0,-4 0,-4 -4,0 -4,0 0,4 0,4 4,0 z m 16,0 4,0 0,-4 0,-4 -4,0 -4,0 0,4 0,4 4,0 z m -44,-16 8,0 0,-16 0,-16 -4,0 -4,0 0,8 0,8 -4,0 -4,0 0,8 0,8 8,0 z m 20,0 4,0 0,-4 0,-4 -4,0 -4,0 0,4 0,4 4,0 z m 32,0 4,0 0,-4 0,-4 -4,0 -4,0 0,4 0,4 4,0 z m 20,0 8,0 0,-8 0,-8 -4,0 -4,0 0,-8 0,-8 -4,0 -4,0 0,16 0,16 8,0 z m -36,-48 12,0 0,-4 0,-4 4,0 4,0 0,-20 0,-20 -4,0 -4,0 0,4 0,4 -8,0 -8,0 0,-4 0,-4 -4,0 -4,0 0,4 0,4 -4,0 -4,0 0,16 0,16 4,0 4,0 0,4 0,4 12,0 z m -8,-16 -4,0 0,-8 0,-8 4,0 4,0 0,8 0,8 -4,0 z m 16,0 -4,0 0,-8 0,-8 4,0 4,0 0,8 0,8 -4,0 z m -40,-32 4,0 0,-4 0,-4 -4,0 -4,0 0,4 0,4 4,0 z m 24,-8 4,0 0,-4 0,-4 -4,0 -4,0 0,4 0,4 4,0 z m 32,-8 12,0 0,-4 0,-4 -12,0 -12,0 0,4 0,4 12,0 z"
         id="path3014"
         style="fill:#0098fe" />
      <path
         d="m 189.89079,510.03769 -8,0 0,-4 0,-4 -4,0 -4,0 0,-12 0,-12 -8,0 -8,0 0,-4 0,-4 -4,0 -4,0 0,-8 0,-8 4,0 4,0 0,-8 0,-8 4,0 4,0 0,-4 0,-4 4,0 4,0 0,-4 0,-4 4,0 4,0 0,-4 0,-4 -4,0 -4,0 0,-4 0,-4 -4,0 -4,0 0,-4 0,-4 -4,0 -4,0 0,-4 0,-4 -4,0 -4,0 0,-8 0,-8 4,0 4,0 0,-4 0,-4 4,0 4,0 0,-4 0,-4 8,0 8,0 0,-4 0,-4 4,0 4,0 0,-4 0,-4 8,0 8,0 0,4 0,4 4,0 4,0 0,-4 0,-4 12,0 12,0 0,4 0,4 4,0 4,0 0,12 0,12 4,0 4,0 0,8 0,8 -4,0 -4,0 0,4 0,4 -4,0 -4,0 0,4 0,4 -4,0 -4,0 0,4 0,4 -4,0 -4,0 0,4 0,4 4,0 4,0 0,4 0,4 4,0 4,0 0,4 0,4 4,0 4,0 0,8 0,8 4,0 4,0 0,8 0,8 -4,0 -4,0 0,4 0,4 -8,0 -8,0 0,12 0,12 -4,0 -4,0 0,4 0,4 -8,0 -8,0 0,-4 0,-4 -4,0 -4,0 0,4 0,4 -8,0 z m -4,-16 4,0 0,-4 0,-4 4,0 4,0 0,-4 0,-4 4,0 4,0 0,4 0,4 4,0 4,0 0,4 0,4 4,0 4,0 0,-16 0,-16 -4,0 -4,0 0,4 0,4 -12,0 -12,0 0,-4 0,-4 -4,0 -4,0 0,16 0,16 4,0 z m -20,-24 8,0 0,-16 0,-16 -4,0 -4,0 0,8 0,8 -4,0 -4,0 0,8 0,8 8,0 z m 72,0 8,0 0,-8 0,-8 -4,0 -4,0 0,-8 0,-8 -4,0 -4,0 0,16 0,16 8,0 z m -36,-48 12,0 0,-4 0,-4 4,0 4,0 0,-20 0,-20 -4,0 -4,0 0,4 0,4 -8,0 -8,0 0,-4 0,-4 -4,0 -4,0 0,4 0,4 -4,0 -4,0 0,16 0,16 4,0 4,0 0,4 0,4 12,0 z m -8,-16 -4,0 0,-8 0,-8 4,0 4,0 0,8 0,8 -4,0 z m 16,0 -4,0 0,-8 0,-8 4,0 4,0 0,8 0,8 -4,0 z m -40,-32 4,0 0,-4 0,-4 -4,0 -4,0 0,4 0,4 4,0 z m 24,-8 4,0 0,-4 0,-4 -4,0 -4,0 0,4 0,4 4,0 z m 32,-8 12,0 0,-4 0,-4 -12,0 -12,0 0,4 0,4 12,0 z"
         id="path3012"
         style="fill:#fe503b" />
      <path
         d="m 189.89079,510.03769 -8,0 0,-4 0,-4 -4,0 -4,0 0,-12 0,-12 -8,0 -8,0 0,-4 0,-4 -4,0 -4,0 0,-8 0,-8 4,0 4,0 0,-8 0,-8 4,0 4,0 0,-4 0,-4 4,0 4,0 0,-4 0,-4 4,0 4,0 0,-4 0,-4 -4,0 -4,0 0,-4 0,-4 -4,0 -4,0 0,-4 0,-4 -4,0 -4,0 0,-4 0,-4 -4,0 -4,0 0,-8 0,-8 4,0 4,0 0,-4 0,-4 4,0 4,0 0,-4 0,-4 8,0 8,0 0,-4 0,-4 4,0 4,0 0,-4 0,-4 8,0 8,0 0,4 0,4 4,0 4,0 0,-4 0,-4 12,0 12,0 0,4 0,4 4,0 4,0 0,12 0,12 4,0 4,0 0,8 0,8 -4,0 -4,0 0,4 0,4 -4,0 -4,0 0,4 0,4 -4,0 -4,0 0,4 0,4 -4,0 -4,0 0,4 0,4 4,0 4,0 0,4 0,4 4,0 4,0 0,4 0,4 4,0 4,0 0,8 0,8 4,0 4,0 0,8 0,8 -4,0 -4,0 0,4 0,4 -8,0 -8,0 0,12 0,12 -4,0 -4,0 0,4 0,4 -8,0 -8,0 0,-4 0,-4 -4,0 -4,0 0,4 0,4 -8,0 z m -4,-16 4,0 0,-4 0,-4 4,0 4,0 0,-4 0,-4 4,0 4,0 0,4 0,4 4,0 4,0 0,4 0,4 4,0 4,0 0,-16 0,-16 -4,0 -4,0 0,4 0,4 -12,0 -12,0 0,-4 0,-4 -4,0 -4,0 0,16 0,16 4,0 z m -20,-24 8,0 0,-12 0,-12 4,0 4,0 0,-4 0,-4 4,0 4,0 0,8 0,8 4,0 4,0 0,4 0,4 4,0 4,0 0,-4 0,-4 4,0 4,0 0,-8 0,-8 4,0 4,0 0,4 0,4 4,0 4,0 0,12 0,12 8,0 8,0 0,-8 0,-8 -4,0 -4,0 0,-8 0,-8 -4,0 -4,0 0,-4 0,-4 -4,0 -4,0 0,-4 0,-4 -4,0 -4,0 0,-4 0,-4 4,0 4,0 0,-20 0,-20 -4,0 -4,0 0,4 0,4 -8,0 -8,0 0,-4 0,-4 -4,0 -4,0 0,4 0,4 -4,0 -4,0 0,16 0,16 4,0 4,0 0,4 0,4 -4,0 -4,0 0,4 0,4 -4,0 -4,0 0,4 0,4 -4,0 -4,0 0,8 0,8 -4,0 -4,0 0,8 0,8 8,0 z m 36,-40 -12,0 0,-4 0,-4 12,0 12,0 0,4 0,4 -12,0 z m -8,-24 -4,0 0,-8 0,-8 4,0 4,0 0,8 0,8 -4,0 z m 16,0 -4,0 0,-8 0,-8 4,0 4,0 0,8 0,8 -4,0 z m -40,-32 4,0 0,-4 0,-4 -4,0 -4,0 0,4 0,4 4,0 z m 24,-8 4,0 0,-4 0,-4 -4,0 -4,0 0,4 0,4 4,0 z m 32,-8 12,0 0,-4 0,-4 -12,0 -12,0 0,4 0,4 12,0 z"
         id="path3010"
         style="fill:#977d70" />
      <path
         d="m 189.89079,510.03769 -8,0 0,-4 0,-4 -4,0 -4,0 0,-12 0,-12 -8,0 -8,0 0,-4 0,-4 -4,0 -4,0 0,-8 0,-8 4,0 4,0 0,-8 0,-8 4,0 4,0 0,-4 0,-4 4,0 4,0 0,-4 0,-4 4,0 4,0 0,-4 0,-4 -4,0 -4,0 0,-4 0,-4 -4,0 -4,0 0,-4 0,-4 -4,0 -4,0 0,-4 0,-4 -4,0 -4,0 0,-8 0,-8 4,0 4,0 0,-4 0,-4 4,0 4,0 0,-4 0,-4 8,0 8,0 0,-4 0,-4 4,0 4,0 0,-4 0,-4 8,0 8,0 0,4 0,4 4,0 4,0 0,-4 0,-4 12,0 12,0 0,4 0,4 4,0 4,0 0,12 0,12 4,0 4,0 0,8 0,8 -4,0 -4,0 0,4 0,4 -4,0 -4,0 0,4 0,4 -4,0 -4,0 0,4 0,4 -4,0 -4,0 0,4 0,4 4,0 4,0 0,4 0,4 4,0 4,0 0,4 0,4 4,0 4,0 0,8 0,8 4,0 4,0 0,8 0,8 -4,0 -4,0 0,4 0,4 -8,0 -8,0 0,12 0,12 -4,0 -4,0 0,4 0,4 -8,0 -8,0 0,-4 0,-4 -4,0 -4,0 0,4 0,4 -8,0 z m -4,-16 4,0 0,-4 0,-4 4,0 4,0 0,-4 0,-4 4,0 4,0 0,4 0,4 4,0 4,0 0,4 0,4 4,0 4,0 0,-16 0,-16 -4,0 -4,0 0,4 0,4 -12,0 -12,0 0,-4 0,-4 -4,0 -4,0 0,16 0,16 4,0 z m -20,-24 8,0 0,-12 0,-12 4,0 4,0 0,-4 0,-4 4,0 4,0 0,8 0,8 4,0 4,0 0,4 0,4 4,0 4,0 0,-4 0,-4 4,0 4,0 0,-8 0,-8 4,0 4,0 0,4 0,4 4,0 4,0 0,12 0,12 8,0 8,0 0,-8 0,-8 -4,0 -4,0 0,-8 0,-8 -4,0 -4,0 0,-4 0,-4 -4,0 -4,0 0,-4 0,-4 -4,0 -4,0 0,-4 0,-4 4,0 4,0 0,-20 0,-20 -4,0 -4,0 0,4 0,4 -8,0 -8,0 0,-4 0,-4 -4,0 -4,0 0,4 0,4 -4,0 -4,0 0,16 0,16 4,0 4,0 0,4 0,4 -4,0 -4,0 0,4 0,4 -4,0 -4,0 0,4 0,4 -4,0 -4,0 0,8 0,8 -4,0 -4,0 0,8 0,8 8,0 z m 36,-40 -12,0 0,-4 0,-4 12,0 12,0 0,4 0,4 -12,0 z m -8,-24 -4,0 0,-8 0,-8 4,0 4,0 0,8 0,8 -4,0 z m 16,0 -4,0 0,-8 0,-8 4,0 4,0 0,8 0,8 -4,0 z m -48,-24 4,0 0,-4 0,-4 8,0 8,0 0,-4 0,-4 -8,0 -8,0 0,4 0,4 -4,0 -4,0 0,4 0,4 4,0 z m 32,-16 4,0 0,-4 0,-4 -4,0 -4,0 0,4 0,4 4,0 z m 16,0 4,0 0,-4 0,-4 12,0 12,0 0,-4 0,-4 -12,0 -12,0 0,4 0,4 -4,0 -4,0 0,4 0,4 4,0 z"
         id="path3008"
         style="fill:#007ae0" />
      <path
         d="m 189.89079,510.03769 -8,0 0,-4 0,-4 -4,0 -4,0 0,-12 0,-12 -8,0 -8,0 0,-4 0,-4 -4,0 -4,0 0,-8 0,-8 4,0 4,0 0,-8 0,-8 4,0 4,0 0,-4 0,-4 4,0 4,0 0,-4 0,-4 4,0 4,0 0,-4 0,-4 -4,0 -4,0 0,-4 0,-4 -4,0 -4,0 0,-4 0,-4 -4,0 -4,0 0,-4 0,-4 -4,0 -4,0 0,-8 0,-8 4,0 4,0 0,-4 0,-4 4,0 4,0 0,-4 0,-4 8,0 8,0 0,-4 0,-4 4,0 4,0 0,-4 0,-4 8,0 8,0 0,4 0,4 4,0 4,0 0,-4 0,-4 12,0 12,0 0,4 0,4 4,0 4,0 0,12 0,12 4,0 4,0 0,8 0,8 -4,0 -4,0 0,4 0,4 -4,0 -4,0 0,4 0,4 -4,0 -4,0 0,4 0,4 -4,0 -4,0 0,4 0,4 4,0 4,0 0,4 0,4 4,0 4,0 0,4 0,4 4,0 4,0 0,8 0,8 4,0 4,0 0,8 0,8 -4,0 -4,0 0,4 0,4 -8,0 -8,0 0,12 0,12 -4,0 -4,0 0,4 0,4 -8,0 -8,0 0,-4 0,-4 -4,0 -4,0 0,4 0,4 -8,0 z m 0,-16 8,0 0,-8 0,-8 4,0 4,0 0,8 0,8 8,0 8,0 0,-16 0,-16 -4,0 -4,0 0,4 0,4 -12,0 -12,0 0,-4 0,-4 -4,0 -4,0 0,16 0,16 8,0 z m -24,-24 8,0 0,-12 0,-12 4,0 4,0 0,-4 0,-4 4,0 4,0 0,8 0,8 4,0 4,0 0,4 0,4 4,0 4,0 0,-4 0,-4 4,0 4,0 0,-8 0,-8 4,0 4,0 0,4 0,4 4,0 4,0 0,12 0,12 8,0 8,0 0,-8 0,-8 -4,0 -4,0 0,-8 0,-8 -4,0 -4,0 0,-4 0,-4 -4,0 -4,0 0,-4 0,-4 -4,0 -4,0 0,-4 0,-4 4,0 4,0 0,-20 0,-20 -4,0 -4,0 0,4 0,4 -8,0 -8,0 0,-4 0,-4 -4,0 -4,0 0,4 0,4 -4,0 -4,0 0,16 0,16 4,0 4,0 0,4 0,4 -4,0 -4,0 0,4 0,4 -4,0 -4,0 0,4 0,4 -4,0 -4,0 0,8 0,8 -4,0 -4,0 0,8 0,8 8,0 z m 36,-40 -12,0 0,-4 0,-4 12,0 12,0 0,4 0,4 -12,0 z m -8,-24 -4,0 0,-8 0,-8 4,0 4,0 0,8 0,8 -4,0 z m 16,0 -4,0 0,-8 0,-8 4,0 4,0 0,8 0,8 -4,0 z m -48,-24 4,0 0,-4 0,-4 8,0 8,0 0,-4 0,-4 -8,0 -8,0 0,4 0,4 -4,0 -4,0 0,4 0,4 4,0 z m 32,-16 4,0 0,-4 0,-4 -4,0 -4,0 0,4 0,4 4,0 z m 16,0 4,0 0,-4 0,-4 12,0 12,0 0,-4 0,-4 -12,0 -12,0 0,4 0,4 -4,0 -4,0 0,4 0,4 4,0 z"
         id="path3006"
         style="fill:#e0321d" />
      <path
         d="m 189.89079,510.03769 -8,0 0,-4 0,-4 -4,0 -4,0 0,-12 0,-12 -8,0 -8,0 0,-4 0,-4 -4,0 -4,0 0,-8 0,-8 4,0 4,0 0,-8 0,-8 4,0 4,0 0,-4 0,-4 4,0 4,0 0,-4 0,-4 4,0 4,0 0,-4 0,-4 -4,0 -4,0 0,-4 0,-4 -4,0 -4,0 0,-4 0,-4 -4,0 -4,0 0,-4 0,-4 -4,0 -4,0 0,-8 0,-8 4,0 4,0 0,-4 0,-4 4,0 4,0 0,-4 0,-4 8,0 8,0 0,-4 0,-4 4,0 4,0 0,-4 0,-4 8,0 8,0 0,4 0,4 4,0 4,0 0,-4 0,-4 12,0 12,0 0,4 0,4 4,0 4,0 0,12 0,12 4,0 4,0 0,8 0,8 -4,0 -4,0 0,4 0,4 -4,0 -4,0 0,4 0,4 -4,0 -4,0 0,4 0,4 -4,0 -4,0 0,4 0,4 4,0 4,0 0,4 0,4 4,0 4,0 0,4 0,4 4,0 4,0 0,8 0,8 4,0 4,0 0,8 0,8 -4,0 -4,0 0,4 0,4 -8,0 -8,0 0,12 0,12 -4,0 -4,0 0,4 0,4 -8,0 -8,0 0,-4 0,-4 -4,0 -4,0 0,4 0,4 -8,0 z m 0,-16 8,0 0,-8 0,-8 4,0 4,0 0,8 0,8 8,0 8,0 0,-16 0,-16 -4,0 -4,0 0,-4 0,-4 4,0 4,0 0,-4 0,-4 4,0 4,0 0,12 0,12 8,0 8,0 0,-8 0,-8 -4,0 -4,0 0,-8 0,-8 -4,0 -4,0 0,-4 0,-4 -4,0 -4,0 0,-4 0,-4 -4,0 -4,0 0,-4 0,-4 4,0 4,0 0,-20 0,-20 -4,0 -4,0 0,4 0,4 -8,0 -8,0 0,-4 0,-4 -4,0 -4,0 0,4 0,4 -4,0 -4,0 0,16 0,16 4,0 4,0 0,4 0,4 -4,0 -4,0 0,4 0,4 -4,0 -4,0 0,4 0,4 -4,0 -4,0 0,8 0,8 -4,0 -4,0 0,8 0,8 8,0 8,0 0,-12 0,-12 4,0 4,0 0,4 0,4 4,0 4,0 0,4 0,4 -4,0 -4,0 0,16 0,16 8,0 z m 12,-24 -12,0 0,-4 0,-4 12,0 12,0 0,4 0,4 -12,0 z m 0,-40 -12,0 0,-4 0,-4 12,0 12,0 0,4 0,4 -12,0 z m -8,-24 -4,0 0,-8 0,-8 4,0 4,0 0,8 0,8 -4,0 z m 16,0 -4,0 0,-8 0,-8 4,0 4,0 0,8 0,8 -4,0 z m -48,-24 4,0 0,-4 0,-4 8,0 8,0 0,-4 0,-4 -8,0 -8,0 0,4 0,4 -4,0 -4,0 0,4 0,4 4,0 z m 32,-16 4,0 0,-4 0,-4 -4,0 -4,0 0,4 0,4 4,0 z m 16,0 4,0 0,-4 0,-4 12,0 12,0 0,-4 0,-4 -12,0 -12,0 0,4 0,4 -4,0 -4,0 0,4 0,4 4,0 z"
         id="path3004"
         style="fill:#795f52" />
      <path
         d="m 189.89079,510.03769 -8,0 0,-4 0,-4 -4,0 -4,0 0,-12 0,-12 -8,0 -8,0 0,-4 0,-4 -4,0 -4,0 0,-8 0,-8 4,0 4,0 0,-8 0,-8 4,0 4,0 0,-4 0,-4 4,0 4,0 0,-4 0,-4 4,0 4,0 0,-4 0,-4 -4,0 -4,0 0,-4 0,-4 -4,0 -4,0 0,-4 0,-4 -4,0 -4,0 0,-4 0,-4 -4,0 -4,0 0,-8 0,-8 4,0 4,0 0,-4 0,-4 4,0 4,0 0,-4 0,-4 8,0 8,0 0,-4 0,-4 4,0 4,0 0,-4 0,-4 8,0 8,0 0,4 0,4 4,0 4,0 0,-4 0,-4 12,0 12,0 0,4 0,4 4,0 4,0 0,12 0,12 4,0 4,0 0,8 0,8 -4,0 -4,0 0,4 0,4 -4,0 -4,0 0,4 0,4 -4,0 -4,0 0,4 0,4 -4,0 -4,0 0,4 0,4 4,0 4,0 0,4 0,4 4,0 4,0 0,4 0,4 4,0 4,0 0,8 0,8 4,0 4,0 0,8 0,8 -4,0 -4,0 0,4 0,4 -8,0 -8,0 0,12 0,12 -4,0 -4,0 0,4 0,4 -8,0 -8,0 0,-4 0,-4 -4,0 -4,0 0,4 0,4 -8,0 z m 0,-16 8,0 0,-8 0,-8 4,0 4,0 0,8 0,8 8,0 8,0 0,-16 0,-16 -4,0 -4,0 0,-4 0,-4 4,0 4,0 0,-4 0,-4 4,0 4,0 0,12 0,12 8,0 8,0 0,-8 0,-8 -4,0 -4,0 0,-8 0,-8 -4,0 -4,0 0,-4 0,-4 -4,0 -4,0 0,-4 0,-4 -4,0 -4,0 0,-4 0,-4 4,0 4,0 0,-20 0,-20 -4,0 -4,0 0,-4 0,-4 4,0 4,0 0,-4 0,-4 8,0 8,0 0,-4 0,-4 -12,0 -12,0 0,4 0,4 -4,0 -4,0 0,-4 0,-4 -8,0 -8,0 0,4 0,4 -4,0 -4,0 0,4 0,4 -8,0 -8,0 0,4 0,4 -4,0 -4,0 0,4 0,4 4,0 4,0 0,8 0,8 4,0 4,0 0,-8 0,-8 -4,0 -4,0 0,-4 0,-4 8,0 8,0 0,20 0,20 4,0 4,0 0,4 0,4 -4,0 -4,0 0,4 0,4 -4,0 -4,0 0,4 0,4 -4,0 -4,0 0,8 0,8 -4,0 -4,0 0,8 0,8 8,0 8,0 0,-12 0,-12 4,0 4,0 0,4 0,4 4,0 4,0 0,4 0,4 -4,0 -4,0 0,16 0,16 8,0 z m 12,-24 -12,0 0,-4 0,-4 12,0 12,0 0,4 0,4 -12,0 z m 0,-40 -12,0 0,-4 0,-4 12,0 12,0 0,4 0,4 -12,0 z m -8,-24 -4,0 0,-8 0,-8 4,0 4,0 0,8 0,8 -4,0 z m 16,0 -4,0 0,-8 0,-8 4,0 4,0 0,8 0,8 -4,0 z m -8,-40 -4,0 0,-4 0,-4 4,0 4,0 0,4 0,4 -4,0 z m 32,24 4,0 0,-8 0,-8 -4,0 -4,0 0,8 0,8 4,0 z"
         id="path3002"
         style="fill:#5b4134" />
      <path
         d="m 189.89079,510.03769 -8,0 0,-4 0,-4 -4,0 -4,0 0,-12 0,-12 -8,0 -8,0 0,-4 0,-4 -4,0 -4,0 0,-8 0,-8 4,0 4,0 0,-8 0,-8 4,0 4,0 0,-4 0,-4 4,0 4,0 0,-4 0,-4 4,0 4,0 0,-4 0,-4 -4,0 -4,0 0,-4 0,-4 -4,0 -4,0 0,-4 0,-4 -4,0 -4,0 0,-4 0,-4 -4,0 -4,0 0,-8 0,-8 4,0 4,0 0,-4 0,-4 4,0 4,0 0,-4 0,-4 8,0 8,0 0,-4 0,-4 4,0 4,0 0,-4 0,-4 8,0 8,0 0,4 0,4 4,0 4,0 0,-4 0,-4 12,0 12,0 0,4 0,4 4,0 4,0 0,12 0,12 4,0 4,0 0,8 0,8 -4,0 -4,0 0,4 0,4 -4,0 -4,0 0,4 0,4 -4,0 -4,0 0,4 0,4 -4,0 -4,0 0,4 0,4 4,0 4,0 0,4 0,4 4,0 4,0 0,4 0,4 4,0 4,0 0,8 0,8 4,0 4,0 0,8 0,8 -4,0 -4,0 0,4 0,4 -8,0 -8,0 0,12 0,12 -4,0 -4,0 0,4 0,4 -8,0 -8,0 0,-4 0,-4 -4,0 -4,0 0,4 0,4 -8,0 z m -4,-8 4,0 0,-4 0,-4 4,0 4,0 0,-8 0,-8 4,0 4,0 0,8 0,8 4,0 4,0 0,4 0,4 4,0 4,0 0,-20 0,-20 -4,0 -4,0 0,-4 0,-4 4,0 4,0 0,-4 0,-4 4,0 4,0 0,12 0,12 8,0 8,0 0,-8 0,-8 -4,0 -4,0 0,-8 0,-8 -4,0 -4,0 0,-4 0,-4 -4,0 -4,0 0,-4 0,-4 -4,0 -4,0 0,-4 0,-4 4,0 4,0 0,-20 0,-20 4,0 4,0 0,12 0,12 4,0 4,0 0,-4 0,-4 4,0 4,0 0,-8 0,-8 -8,0 -8,0 0,-4 0,-4 4,0 4,0 0,-8 0,-8 -12,0 -12,0 0,4 0,4 -4,0 -4,0 0,-4 0,-4 -8,0 -8,0 0,4 0,4 -4,0 -4,0 0,4 0,4 -8,0 -8,0 0,4 0,4 -4,0 -4,0 0,8 0,8 4,0 4,0 0,4 0,4 4,0 4,0 0,-12 0,-12 4,0 4,0 0,20 0,20 4,0 4,0 0,4 0,4 -4,0 -4,0 0,4 0,4 -4,0 -4,0 0,4 0,4 -4,0 -4,0 0,8 0,8 -4,0 -4,0 0,8 0,8 8,0 8,0 0,-12 0,-12 4,0 4,0 0,4 0,4 4,0 4,0 0,4 0,4 -4,0 -4,0 0,20 0,20 4,0 z m 16,-32 -12,0 0,-4 0,-4 12,0 12,0 0,4 0,4 -12,0 z m 0,-40 -12,0 0,-4 0,-4 12,0 12,0 0,4 0,4 -12,0 z m -8,-24 -4,0 0,-8 0,-8 4,0 4,0 0,8 0,8 -4,0 z m 16,0 -4,0 0,-8 0,-8 4,0 4,0 0,8 0,8 -4,0 z m -8,-40 -4,0 0,-4 0,-4 4,0 4,0 0,4 0,4 -4,0 z"
         id="path3000"
         style="fill:#3d2316" />
      <path
         d="m 189.89079,510.03769 -8,0 0,-4 0,-4 -4,0 -4,0 0,-12 0,-12 -8,0 -8,0 0,-4 0,-4 -4,0 -4,0 0,-8 0,-8 4,0 4,0 0,-8 0,-8 4,0 4,0 0,-4 0,-4 4,0 4,0 0,-4 0,-4 4,0 4,0 0,-4 0,-4 -4,0 -4,0 0,-4 0,-4 -4,0 -4,0 0,-4 0,-4 -4,0 -4,0 0,-4 0,-4 -4,0 -4,0 0,-8 0,-8 4,0 4,0 0,-4 0,-4 4,0 4,0 0,-4 0,-4 8,0 8,0 0,-4 0,-4 4,0 4,0 0,-4 0,-4 8,0 8,0 0,4 0,4 4,0 4,0 0,-4 0,-4 12,0 12,0 0,4 0,4 4,0 4,0 0,12 0,12 4,0 4,0 0,8 0,8 -4,0 -4,0 0,4 0,4 -4,0 -4,0 0,4 0,4 -4,0 -4,0 0,4 0,4 -4,0 -4,0 0,4 0,4 4,0 4,0 0,4 0,4 4,0 4,0 0,4 0,4 4,0 4,0 0,8 0,8 4,0 4,0 0,8 0,8 -4,0 -4,0 0,4 0,4 -8,0 -8,0 0,12 0,12 -4,0 -4,0 0,4 0,4 -8,0 -8,0 0,-4 0,-4 -4,0 -4,0 0,4 0,4 -8,0 z m 0,-8 8,0 0,-12 0,-12 4,0 4,0 0,12 0,12 8,0 8,0 0,-20 0,-20 -4,0 -4,0 0,-4 0,-4 4,0 4,0 0,-4 0,-4 4,0 4,0 0,12 0,12 8,0 8,0 0,-8 0,-8 -4,0 -4,0 0,-8 0,-8 -4,0 -4,0 0,-4 0,-4 -4,0 -4,0 0,-4 0,-4 -4,0 -4,0 0,-4 0,-4 4,0 4,0 0,-20 0,-20 4,0 4,0 0,12 0,12 4,0 4,0 0,-4 0,-4 4,0 4,0 0,-8 0,-8 -8,0 -8,0 0,-4 0,-4 4,0 4,0 0,-8 0,-8 -12,0 -12,0 0,4 0,4 -4,0 -4,0 0,-4 0,-4 -8,0 -8,0 0,4 0,4 -4,0 -4,0 0,4 0,4 -8,0 -8,0 0,4 0,4 -4,0 -4,0 0,8 0,8 4,0 4,0 0,4 0,4 4,0 4,0 0,-12 0,-12 4,0 4,0 0,20 0,20 4,0 4,0 0,4 0,4 -4,0 -4,0 0,4 0,4 -4,0 -4,0 0,4 0,4 -4,0 -4,0 0,8 0,8 -4,0 -4,0 0,8 0,8 8,0 8,0 0,-12 0,-12 4,0 4,0 0,4 0,4 4,0 4,0 0,4 0,4 -4,0 -4,0 0,20 0,20 8,0 z m 12,-32 -12,0 0,-4 0,-4 12,0 12,0 0,4 0,4 -12,0 z m 0,-40 -12,0 0,-4 0,-4 12,0 12,0 0,4 0,4 -12,0 z m -8,-24 -4,0 0,-8 0,-8 4,0 4,0 0,8 0,8 -4,0 z m 16,0 -4,0 0,-8 0,-8 4,0 4,0 0,8 0,8 -4,0 z m -8,-40 -4,0 0,-4 0,-4 4,0 4,0 0,4 0,4 -4,0 z"
         id="path2998"
         style="fill:#000000" />
    </g>
  </g>
</svg>
